<svg width="36" height="37" viewBox="0 0 36 37" fill="none" xmlns="http://www.w3.org/2000/svg">
<path fill-rule="evenodd" clip-rule="evenodd" d="M10.5791 0.109123C12.4985 0.0198406 13.1105 0 18 0C22.8895 0 23.5015 0.021494 25.4193 0.109123C27.3371 0.196753 28.6462 0.505936 29.7916 0.954004C30.9911 1.41199 32.0793 2.12791 32.9793 3.0538C33.8956 3.96151 34.6025 5.05936 35.0542 6.27295C35.4993 7.43032 35.8036 8.75303 35.892 10.6875C35.9804 12.6302 36 13.2486 36 18.1873C36 23.1276 35.9787 23.7459 35.892 25.6854C35.8053 27.6198 35.4993 28.9425 35.0542 30.0999C34.6025 31.3136 33.8945 32.4133 32.9793 33.3223C32.0793 34.2482 30.9911 34.9625 29.7916 35.4188C28.6462 35.8686 27.3371 36.1761 25.4225 36.2654C23.5015 36.3547 22.8895 36.3745 18 36.3745C13.1105 36.3745 12.4985 36.353 10.5791 36.2654C8.66455 36.1777 7.35545 35.8686 6.21 35.4188C5.00878 34.9624 3.92043 34.247 3.02073 33.3223C2.10499 32.4141 1.39633 31.3149 0.944182 30.1015C0.500727 28.9442 0.196364 27.6215 0.108 25.687C0.0196363 23.7443 0 23.1259 0 18.1873C0 13.2469 0.0212727 12.6286 0.108 10.6908C0.194727 8.75303 0.500727 7.43032 0.944182 6.27295C1.397 5.0595 2.10619 3.96038 3.02236 3.05215C3.92079 2.12708 5.00804 1.41107 6.20836 0.954004C7.35382 0.505936 8.66291 0.198406 10.5775 0.109123H10.5791ZM25.2736 3.38283C23.3755 3.2952 22.806 3.27701 18 3.27701C13.194 3.27701 12.6245 3.2952 10.7264 3.38283C8.97055 3.46384 8.01818 3.7598 7.38327 4.00946C6.54382 4.34014 5.94327 4.73199 5.31327 5.36855C4.71607 5.95558 4.25648 6.67023 3.96818 7.46008C3.72109 8.10159 3.42818 9.06386 3.348 10.8379C3.26127 12.7559 3.24327 13.3313 3.24327 18.1873C3.24327 23.0432 3.26127 23.6186 3.348 25.5366C3.42818 27.3106 3.72109 28.2729 3.96818 28.9144C4.25618 29.7031 4.716 30.419 5.31327 31.006C5.89418 31.6094 6.60273 32.074 7.38327 32.365C8.01818 32.6147 8.97055 32.9107 10.7264 32.9917C12.6245 33.0793 13.1924 33.0975 18 33.0975C22.8076 33.0975 23.3755 33.0793 25.2736 32.9917C27.0295 32.9107 27.9818 32.6147 28.6167 32.365C29.4562 32.0344 30.0567 31.6425 30.6867 31.006C31.284 30.419 31.7438 29.7031 32.0318 28.9144C32.2789 28.2729 32.5718 27.3106 32.652 25.5366C32.7387 23.6186 32.7567 23.0432 32.7567 18.1873C32.7567 13.3313 32.7387 12.7559 32.652 10.8379C32.5718 9.06386 32.2789 8.10159 32.0318 7.46008C31.7045 6.61189 31.3167 6.0051 30.6867 5.36855C30.1057 4.76518 29.3984 4.30081 28.6167 4.00946C27.9818 3.7598 27.0295 3.46384 25.2736 3.38283ZM15.7009 23.7939C16.9849 24.3339 18.4146 24.4068 19.7459 24.0001C21.0771 23.5934 22.2274 22.7323 23.0001 21.5639C23.7728 20.3955 24.1201 18.9922 23.9826 17.5939C23.8452 16.1955 23.2315 14.8887 22.2464 13.8967C21.6184 13.2626 20.8591 12.7771 20.0231 12.475C19.1871 12.173 18.2952 12.062 17.4117 12.1501C16.5282 12.2382 15.675 12.523 14.9135 12.9843C14.152 13.4455 13.5012 14.0715 13.0079 14.8174C12.5147 15.5633 12.1912 16.4103 12.0608 17.2977C11.9305 18.185 11.9964 19.0905 12.254 19.949C12.5115 20.8074 12.9542 21.5975 13.5503 22.2624C14.1463 22.9272 14.8808 23.4503 15.7009 23.7939ZM11.4578 11.577C12.3169 10.7089 13.3369 10.0204 14.4594 9.55056C15.5819 9.08076 16.785 8.83896 18 8.83896C19.215 8.83896 20.4181 9.08076 21.5406 9.55056C22.6631 10.0204 23.683 10.7089 24.5422 11.577C25.4013 12.4451 26.0828 13.4756 26.5478 14.6098C27.0127 15.744 27.252 16.9596 27.252 18.1873C27.252 19.4149 27.0127 20.6305 26.5478 21.7647C26.0828 22.8989 25.4013 23.9294 24.5422 24.7975C22.8071 26.5506 20.4538 27.5355 18 27.5355C15.5462 27.5355 13.1929 26.5506 11.4578 24.7975C9.72272 23.0443 8.74796 20.6666 8.74796 18.1873C8.74796 15.7079 9.72272 13.3302 11.4578 11.577ZM29.304 10.2312C29.5169 10.0282 29.6873 9.78421 29.8052 9.51354C29.9231 9.24287 29.9861 8.95105 29.9903 8.65536C29.9946 8.35967 29.9401 8.06612 29.8301 7.7921C29.72 7.51807 29.5567 7.26913 29.3498 7.06002C29.1428 6.85092 28.8964 6.68589 28.6252 6.57472C28.354 6.46355 28.0635 6.40849 27.7708 6.4128C27.4782 6.41711 27.1894 6.4807 26.9215 6.59982C26.6536 6.71893 26.4121 6.89114 26.2113 7.10625C25.8207 7.52461 25.6069 8.0803 25.6151 8.65536C25.6234 9.23042 25.8532 9.77958 26.2557 10.1863C26.6582 10.5929 27.2017 10.8251 27.7708 10.8335C28.34 10.8419 28.89 10.6258 29.304 10.2312Z" fill="#AC5656"/>
</svg>
