<svg width="91" height="54" viewBox="0 0 91 54" fill="none" xmlns="http://www.w3.org/2000/svg">
<path fill-rule="evenodd" clip-rule="evenodd" d="M82.0365 24.2837C81.2051 24.4707 80.6343 24.5787 80.0759 24.7282C76.5806 25.6462 73.0606 26.3731 69.4206 26.2361C64.5562 26.0491 60.3785 24.0843 56.693 20.9191C55.2039 19.6355 53.8224 18.219 52.3995 16.8565C51.7087 16.2002 51.5432 15.4525 52.0685 14.5968L53.4129 12.4077L55.2287 14.4099C57.847 17.3259 60.6474 19.9803 64.3411 21.3968C67.9687 22.7842 71.6625 22.5806 75.3728 21.9534C80.6177 21.0728 85.4614 18.9667 90.21 16.6032C90.3671 16.5242 90.5409 16.4744 91 16.2916C90.6856 16.8856 90.5119 17.2387 90.3134 17.571C83.3808 29.2767 76.4483 40.9824 69.5075 52.684C68.6554 54.1212 68.3369 54.2292 66.856 53.5023C57.0694 48.6755 46.8195 47.7575 36.2387 49.5852C34.5841 49.8718 34.2905 49.7306 33.5004 48.0275C32.6359 46.1665 32.6442 46.2164 34.6007 45.8383C40.0522 44.7689 45.6343 44.5406 51.1544 45.1613C56.3207 45.7428 61.4705 46.5071 66.2108 48.9496C66.8891 49.3027 67.249 49.0078 67.5882 48.4428C70.5953 43.4 73.6025 38.3572 76.6261 33.3226C78.2435 30.6267 79.8939 27.9516 81.5195 25.2641C81.6601 25.0314 81.7718 24.7864 82.0365 24.2837ZM9.01314 24.7864C9.70805 25.9619 10.403 27.1375 11.1061 28.3089L25.0209 51.4877C25.6827 52.5926 25.6827 52.6258 24.5369 53.1534C22.0675 54.2957 22.3736 54.5906 20.8638 52.0526C15.5279 43.0594 10.2003 34.0579 4.87264 25.0605L0.554272 17.7704C0.347454 17.4256 0.182 17.0518 0 16.6904L0.161318 16.4744C0.769364 16.7444 1.38155 16.9978 1.98132 17.2802C5.63373 18.9958 9.3275 20.5909 13.2405 21.5629C18.262 22.8174 23.2215 22.9628 28.0073 20.566C30.9855 19.0747 33.4384 16.8773 35.6472 14.3725C39.1838 10.3515 42.0544 5.84039 44.6562 1.13817L45.289 0C45.6324 0.515084 45.8516 0.905552 46.1287 1.24617C47.655 3.12374 47.2952 4.79361 46.0088 6.73763C43.1381 11.0743 40.2468 15.3695 36.4248 18.892C33.0082 22.0406 29.1779 24.4167 24.6775 25.5008C21.1451 26.3524 17.5961 26.1821 14.0512 25.5216C12.4298 25.2184 10.8166 24.8777 9.19927 24.5537L9.01314 24.7864Z" fill="white"/>
</svg>
